<svg width="15" height="18" viewBox="0 0 15 18" fill="none" xmlns="http://www.w3.org/2000/svg">
<path d="M12.4999 7.87506V4.50004C12.4999 2.01935 10.2577 0 7.5 0C4.74311 0 2.50005 2.01935 2.50005 4.50004V7.87506C1.1193 7.87506 0 8.88255 0 10.1249V15.7499C0 16.9927 1.1193 18 2.50005 18H12.4999C13.8804 18 15 16.9927 15 15.7499V10.1249C15 8.88251 13.8804 7.87506 12.4999 7.87506ZM8.12504 13.3274V15.1874C8.12504 15.4984 7.84554 15.7499 7.50004 15.7499C7.15454 15.7499 6.875 15.4984 6.875 15.1874V13.3274C6.50815 13.132 6.25008 12.7869 6.25008 12.375C6.25008 11.7531 6.80979 11.25 7.5 11.25C8.19021 11.25 8.75001 11.7531 8.75001 12.375C8.75005 12.7869 8.49169 13.132 8.12504 13.3274ZM9.99989 7.87506H5.00003V4.50004C5.00003 3.25858 6.12118 2.24998 7.5 2.24998C8.87816 2.24998 9.99985 3.25858 9.99985 4.50004V7.87506H9.99989Z" fill="#3E3E3E"/>
</svg>
