<svg width="284" height="228" viewBox="0 0 284 228" fill="none" xmlns="http://www.w3.org/2000/svg">
<g filter="url(#filter0_d_7_119)">
<path d="M142.33 129.914C144.355 128.631 145.697 126.372 145.697 123.797C145.697 119.797 142.456 116.556 138.456 116.556C134.458 116.556 131.217 119.797 131.217 123.797C131.217 126.37 132.56 128.631 134.584 129.914V145.857H142.33V129.914ZM174.255 88.0276H201.787V168.855H75.1255V163.848V113.612V91.4327V88.0276H78.5107H97.4534H102.66H114.208H162.706H174.255Z" fill="#C5C4E3"/>
<path d="M142.33 129.914V145.857H134.584V129.914C132.56 128.631 131.217 126.37 131.217 123.797C131.217 119.797 134.458 116.556 138.456 116.556C142.456 116.556 145.697 119.797 145.697 123.797C145.697 126.372 144.355 128.631 142.33 129.914Z" fill="#162755"/>
<path d="M256.771 182.633C266.056 192.267 265.903 203.44 248.778 210.016C219.838 221.129 22.9373 228.54 22.5472 200.923C22.5166 198.618 22.8815 196.436 23.5809 194.37C29.9125 175.621 63.5841 166.469 75.1255 163.848V168.855H201.787V162.271C206.838 162.719 214.605 163.988 226.529 166.906C239.457 170.068 250.362 175.985 256.771 182.633Z" fill="#7FD3C3"/>
<path d="M65.069 120.34C68.4128 116.596 72.215 114.636 75.1255 113.612V163.848C63.5841 166.469 29.9125 175.621 23.5809 194.37C18.4897 192.822 8.29487 186.51 24.4527 161.349C41.9393 134.116 51.1294 140.31 57.2003 133.473C58.2628 132.277 59.2281 130.682 60.127 128.441C61.4735 125.085 63.1993 122.433 65.069 120.34Z" fill="#BDFFF5"/>
<path d="M223.757 123.719C224.927 125.629 225.979 127.912 226.865 130.634C234.24 153.301 264.346 163.544 256.771 182.633C250.362 175.985 239.457 170.068 226.529 166.906C214.605 163.988 206.838 162.719 201.787 162.271V115.439C206.955 114.048 217.201 113.016 223.757 123.719Z" fill="#BDFFF5"/>
<path d="M78.5107 88.0276H75.1256V91.4327C69.4357 82.0933 54.0902 66.2052 54.0902 66.2052C54.0902 66.2052 68.5566 74.3623 78.5107 88.0276Z" fill="white"/>
<path d="M193.165 88.0276C216.147 51.3169 230.401 52.3974 230.401 52.3974C230.401 52.3974 213.174 61.7208 198.164 88.0276H193.165Z" fill="white"/>
<path d="M157.985 38.6159C156.849 40.2536 155.661 41.4689 154.526 42.3714C154.589 41.8806 154.623 41.3772 154.623 40.8667V29.4187C149.205 30.6771 142.666 24.4426 142.666 24.4426C137.705 27.3765 129.982 29.9131 122.291 31.0205C107.025 33.2191 91.884 29.789 98.7154 12.6548C108.988 -13.1104 145.866 8.44451 145.866 8.44451C145.866 8.44451 165.737 -6.20525 163.716 19.2219C162.954 28.8164 160.61 34.8371 157.985 38.6159Z" fill="#162755"/>
<path d="M105.295 51.6243C108.612 44.7426 114.793 39.5022 122.291 37.4474V40.8667C122.291 45.4329 124.946 49.3807 128.797 51.2486C120.281 54.3928 114.208 62.5862 114.208 72.1967V88.0276H102.66V63.2077C102.66 59.0583 103.605 55.1281 105.295 51.6243Z" fill="#B3B3B3"/>
<path d="M174.255 76.1961V88.0276H162.706V72.1967C162.706 62.5862 156.633 54.3928 148.115 51.2486C151.538 49.5875 154.016 46.2886 154.526 42.3714C155.661 41.4689 156.849 40.2536 157.985 38.6159C163.27 40.8631 167.684 44.7642 170.573 49.6702C172.913 53.6396 174.255 58.2669 174.255 63.2077V76.1961Z" fill="#B3B3B3"/>
<path d="M162.706 72.1967V88.0276H114.208V72.1967C114.208 62.5862 120.281 54.3928 128.797 51.2486C130.314 51.9839 132.019 52.3973 133.822 52.3973H143.093C144.894 52.3973 146.598 51.9839 148.115 51.2486C156.633 54.3928 162.706 62.5862 162.706 72.1967Z" fill="#0D726E"/>
<path d="M154.526 42.3714C154.016 46.2886 151.538 49.5875 148.115 51.2486C146.598 51.9839 144.894 52.3974 143.093 52.3974H133.822C132.018 52.3974 130.314 51.9839 128.797 51.2486C124.946 49.3807 122.291 45.4329 122.291 40.8667V37.4474V31.0205C129.982 29.9131 137.705 27.3765 142.666 24.4426C142.666 24.4426 149.205 30.6771 154.623 29.4187V40.8667C154.623 41.3772 154.589 41.8806 154.526 42.3714Z" fill="#FFB387"/>
<path d="M53.4161 93.9905C51.3271 107.735 59.2911 116.153 65.069 120.34C63.1993 122.433 61.4735 125.085 60.127 128.441C59.2281 130.682 58.2628 132.277 57.2003 133.473C51.4889 132.368 40.8265 129.463 35.9043 122.618C28.9992 113.019 2.39255 128.007 4.07649 110.662C5.76061 93.3169 15.8642 116.219 26.1372 101.738C33.8801 90.8231 47.3649 90.5822 53.5347 91.1244C53.5995 92.0658 53.5653 93.0206 53.4161 93.9905Z" fill="#A5E1D5"/>
<path d="M90.1277 38.1071C98.7424 41.4348 103.228 47.7052 105.295 51.6243C103.605 55.1281 102.66 59.0583 102.66 63.2077V88.0276H97.4534C96.5402 81.2598 92.3191 64.282 72.9503 62.6687C71.2676 62.529 69.6964 62.2428 68.224 61.8403C65.0061 50.4198 76.5458 51.5254 69.5831 42.2923C61.8367 32.02 66.8883 16.8651 78.0019 16.8651C89.1173 16.8651 76.9916 33.0303 90.1277 38.1071Z" fill="#A5E1D5"/>
<path d="M204.636 41.7871C206.657 45.4958 206.901 48.3488 206.587 50.3353C205.6 50.5079 204.613 50.5691 203.626 50.5079C189.372 49.5983 178.707 67.2711 174.255 76.1961V63.2077C174.255 58.2669 172.913 53.6396 170.573 49.6702C171.712 42.5943 174.792 31.3656 182.745 33.7045C194.197 37.0716 185.776 9.62381 199.923 14.5083C214.067 19.3909 200.309 33.8501 204.636 41.7871Z" fill="#A5E1D5"/>
<path d="M279.237 86.5811C283.614 93.1486 268.627 106.789 247.41 106.283C227.822 105.817 245.188 122.803 223.757 123.719C217.201 113.016 206.955 114.048 201.787 115.439V111.541C217.904 107.245 223.694 99.6233 228.095 83.336C234.779 80.4582 247.104 76.6373 253.641 83.8869C262.903 94.1589 274.858 80.0136 279.237 86.5811Z" fill="#A5E1D5"/>
<path d="M68.224 61.8403C69.6964 62.2428 71.2676 62.529 72.9503 62.6687C92.3191 64.282 96.5402 81.2598 97.4534 88.0276H78.5107C68.5566 74.3623 54.0902 66.2052 54.0902 66.2052C54.0902 66.2052 69.4357 82.0933 75.1256 91.4327V113.612C72.215 114.636 68.4128 116.596 65.069 120.34C59.2911 116.153 51.3271 107.735 53.4161 93.9905C53.5653 93.0206 53.5995 92.0658 53.5347 91.1244C52.199 71.6797 8.04733 58.5936 27.4837 43.9768C46.4445 29.7171 48.4903 56.4333 68.224 61.8403Z" fill="#7AD3BD"/>
<path d="M206.587 50.3353C224.623 47.2235 242.576 7.89978 258.86 34.8838C276.037 63.3423 236.463 44.3669 230.907 71.1997C229.974 75.7077 229.067 79.7341 228.095 83.336C223.694 99.6233 217.904 107.245 201.787 111.541V88.0276H198.164C213.174 61.7208 230.401 52.3974 230.401 52.3974C230.401 52.3974 216.147 51.3169 193.165 88.0276H174.255V76.1961C178.708 67.2711 189.372 49.5983 203.626 50.5079C204.613 50.5691 205.6 50.5079 206.587 50.3353Z" fill="#7AD3BD"/>
</g>
<defs>
<filter id="filter0_d_7_119" x="0" y="0" width="283.999" height="228" filterUnits="userSpaceOnUse" color-interpolation-filters="sRGB">
<feFlood flood-opacity="0" result="BackgroundImageFix"/>
<feColorMatrix in="SourceAlpha" type="matrix" values="0 0 0 0 0 0 0 0 0 0 0 0 0 0 0 0 0 0 127 0" result="hardAlpha"/>
<feOffset dy="4"/>
<feGaussianBlur stdDeviation="2"/>
<feComposite in2="hardAlpha" operator="out"/>
<feColorMatrix type="matrix" values="0 0 0 0 0 0 0 0 0 0 0 0 0 0 0 0 0 0 0.25 0"/>
<feBlend mode="normal" in2="BackgroundImageFix" result="effect1_dropShadow_7_119"/>
<feBlend mode="normal" in="SourceGraphic" in2="effect1_dropShadow_7_119" result="shape"/>
</filter>
</defs>
</svg>
